<svg version="1.1" id="Green-Apple--Streamline-Noto-Emoji" xmlns="http://www.w3.org/2000/svg" xmlns:xlink="http://www.w3.org/1999/xlink" x="0" y="0" viewBox="0 0 32 32" xml:space="preserve" enable-background="new 0 0 128 128" height="32" width="32">
  <desc>
    Green Apple Streamline Emoji: https://streamlinehq.com
  </desc>
  <path d="m20.005325 12.7693 -4.919625 -4.26475 1.826225 -1.3577s5.300325 -2.968275 10.355725 0.60965c4.967575 3.514025 4.499025 13.962925 0.6549 18.741475s-6.514275 5.06075 -7.965125 5.012825c-1.45355 -0.047925 -1.6878 -0.750725 -3.093425 -0.609625 -1.4056 0.141075 -1.87415 0.937075 -4.4511 0.750725 -2.337375 -0.170375 -4.26475 -1.078175 -5.201825 -2.108425 -0.8865 -0.979675 12.79425 -16.774175 12.79425 -16.774175Z" fill="#6EA517" stroke-width="0.25"></path>
  <path d="M25.7316 7.85765s-2.111075 0.91045 -4.2195 1.0755c-2.111075 0.16505 -5.87535 -0.125125 -5.87535 -0.125125s-0.412625 -2.1936 -0.53775 -2.1936 -5.66505 -1.9274 -9.72215 1.1181C1.10145 10.940425 0.680825 17.169825 1.36235 20.14345c1.568 6.833725 6.596775 10.05225 6.596775 10.05225s4.49105 0.497825 10.118825 -1.9833 10.499475 -6.825725 10.385 -12.6585c-0.1251 -6.2081 -2.73135 -7.69625 -2.73135 -7.69625Z" fill="#87C244" stroke-width="0.25"></path>
  <path d="M9.09055 9.055625c-0.72145 -0.83325 -2.702075 -0.6469 -4.2408 1.554675 -1.6026 2.28945 -1.6745 6.485 -0.354075 6.599475 1.0835 0.093175 1.360375 -1.74105 2.0259 -3.040175 1.2512 -2.438525 4.2195 -3.205225 2.568975 -5.113975Z" fill="#E5DD9F" stroke-width="0.25"></path>
  <path d="M10.83425 8.113225c-0.3168 0.6602 0.72675 2.2841 4.62415 2.4039 4.0997 0.125125 5.444075 -2.159 4.975525 -2.691425 -0.468525 -0.532425 -2.001925 0.343425 -4.91165 0.314125s-4.147625 -1.147375 -4.688025 -0.0266Z" fill="#59702C" stroke-width="0.25"></path>
  <path d="M12.86015 3.6621c-0.31415 -0.063875 -1.594625 -0.282175 -1.722425 -0.78265 -0.05855 -0.23695 0.25025 -1.000975 1.064875 -1.56535s1.62655 -0.718775 1.815575 -0.282175c0.189 0.43925 0.125125 0.718775 0.125125 0.8146 0 0.093175 0.644225 0.846575 1.094125 1.815575 0.6256 1.3444 0.969025 2.6595 0.9078 4.00655 -0.04525 0.974325 -0.0639 2.348 -0.6256 2.25215 -0.585675 -0.0985 -0.463225 -1.47215 -0.750725 -2.441175 -0.68685 -2.3134 -1.71975 -3.777575 -1.908775 -3.817525Z" fill="#513532" stroke-width="0.25"></path>
  <path d="M21.0409 5.18485c0.0639 -0.093175 6.5409 -4.160925 6.570175 -4.411175S24.26475 -0.072875 22.1377 0.7098s-4.3313 2.04185 -5.38285 4.224825c-0.8439 1.751675 -0.8439 2.94165 -0.6256 3.22385 0.103825 0.1331 4.91165 -2.973625 4.91165 -2.973625Z" fill="#2F7C31" stroke-width="0.25"></path>
  <path d="M20.322125 4.934625c2.85915 -1.82625 7.291625 -4.16095 7.291625 -4.16095s0.1331 0.34875 -0.7188 1.8156c-1.126075 1.9407 -3.756275 4.4431 -6.41575 5.225775 -2.885775 0.849225 -4.34995 0.343425 -4.34995 0.343425s1.9407 -1.78365 4.192875 -3.22385Z" fill="#4C8C19" stroke-width="0.25"></path>
</svg>