<svg xmlns="http://www.w3.org/2000/svg" version="1.1" xmlns:xlink="http://www.w3.org/1999/xlink" viewBox="0 0 200 200"><rect width="200" height="200" fill="url('#gradient')"></rect><defs><linearGradient id="gradient" gradientTransform="rotate(285 0.5 0.5)"><stop offset="0%" stop-color="#2d34e1"></stop><stop offset="100%" stop-color="#73446a"></stop></linearGradient></defs><g><g fill="#172526" transform="matrix(5.027823240589198,0,0,5.027823240589198,10.151706481965206,135.47195633343512)" stroke="#10359b" stroke-width="0"><path d="M9.98 0L9.15-2.66L4.45-2.66L3.63 0L-0.03 0L5.19-14.22L8.41-14.22L13.66 0L9.98 0ZM6.80-10.23L5.27-5.30L8.33-5.30L6.80-10.23ZM16.58-3.19L16.58-3.19Q17.36-3.19 17.88-2.73Q18.40-2.27 18.40-1.54Q18.40-0.82 17.88-0.36Q17.36 0.11 16.58 0.11L16.58 0.11Q15.79 0.11 15.28-0.36Q14.77-0.83 14.77-1.54Q14.77-2.26 15.28-2.72Q15.79-3.19 16.58-3.19ZM24.67-14.22L24.67-8.93L26.56-9.44L26.56-7.71L24.67-7.19L24.67-2.64L30.63-2.64L30.63 0L21.24 0L21.24-6.24L19.91-5.88L19.91-7.62L21.24-7.98L21.24-14.22L24.67-14.22ZM33.96-3.19L33.96-3.19Q34.74-3.19 35.25-2.73Q35.77-2.27 35.77-1.54Q35.77-0.82 35.25-0.36Q34.74 0.11 33.96 0.11L33.96 0.11Q33.16 0.11 32.65-0.36Q32.14-0.83 32.14-1.54Q32.14-2.26 32.65-2.72Q33.16-3.19 33.96-3.19Z"></path></g></g></svg>